<svg id="Layer_1" data-name="Layer 1" xmlns="http://www.w3.org/2000/svg" xmlns:xlink="http://www.w3.org/1999/xlink" width="587.539" height="496" viewBox="0 0 587.539 496">
  <defs>
    <linearGradient id="linear-gradient" x1="21.3" y1="0.5" x2="22.3" y2="0.5" gradientUnits="objectBoundingBox">
      <stop offset="0" stop-color="#2f054a"/>
      <stop offset="1" stop-color="#5824b0"/>
    </linearGradient>
    <linearGradient id="linear-gradient-2" x1="21.431" y1="0.5" x2="22.431" y2="0.5" gradientUnits="objectBoundingBox">
      <stop offset="0.06" stop-color="#2f0d5e"/>
      <stop offset="0.28" stop-color="#2f105f"/>
      <stop offset="0.47" stop-color="#311b61"/>
      <stop offset="0.48" stop-color="#351f65"/>
      <stop offset="0.5" stop-color="#422c73"/>
      <stop offset="0.51" stop-color="#584188"/>
      <stop offset="0.52" stop-color="#765fa7"/>
      <stop offset="0.53" stop-color="#8770b8"/>
      <stop offset="0.54" stop-color="#7e67ae"/>
      <stop offset="0.56" stop-color="#5c468d"/>
      <stop offset="0.59" stop-color="#442e75"/>
      <stop offset="0.61" stop-color="#362066"/>
      <stop offset="0.63" stop-color="#311b61"/>
      <stop offset="0.67" stop-color="#2a1155"/>
      <stop offset="0.75" stop-color="#230446"/>
      <stop offset="0.81" stop-color="#200041"/>
      <stop offset="1" stop-color="#200041"/>
    </linearGradient>
    <linearGradient id="linear-gradient-3" x1="21.3" y1="0.5" x2="22.3" y2="0.5" gradientUnits="objectBoundingBox">
      <stop offset="0" stop-color="#58098a"/>
      <stop offset="1" stop-color="#9e3bdb"/>
    </linearGradient>
    <radialGradient id="radial-gradient" cx="0.433" cy="0.549" r="0.963" gradientTransform="translate(0.303) scale(0.395 1)" gradientUnits="objectBoundingBox">
      <stop offset="0" stop-color="#fff"/>
      <stop offset="1"/>
    </radialGradient>
    <linearGradient id="linear-gradient-4" x1="21.734" y1="0.5" x2="22.734" y2="0.5" gradientUnits="objectBoundingBox">
      <stop offset="0" stop-color="#2f054a"/>
      <stop offset="1" stop-color="#5e1d9a"/>
    </linearGradient>
    <linearGradient id="linear-gradient-5" x1="699.191" y1="-99.499" x2="700.396" y2="-99.499" gradientUnits="objectBoundingBox">
      <stop offset="0" stop-color="#3d065f"/>
      <stop offset="1" stop-color="#5f27bd"/>
    </linearGradient>
    <linearGradient id="linear-gradient-6" x1="699.191" y1="-99.499" x2="700.396" y2="-99.499" xlink:href="#linear-gradient"/>
    <linearGradient id="linear-gradient-7" x1="763.351" y1="-105.239" x2="762.806" y2="-104.023" gradientUnits="objectBoundingBox">
      <stop offset="0.06" stop-color="#9f79b8"/>
      <stop offset="0.26" stop-color="#a17bba"/>
      <stop offset="0.36" stop-color="#a783bf"/>
      <stop offset="0.43" stop-color="#b290c9"/>
      <stop offset="0.49" stop-color="#c1a1d5"/>
      <stop offset="0.51" stop-color="#c4a5d7"/>
      <stop offset="0.52" stop-color="#cdb3dd"/>
      <stop offset="0.53" stop-color="#dbc8e7"/>
      <stop offset="0.55" stop-color="#efe7f4"/>
      <stop offset="0.56" stop-color="#fff"/>
      <stop offset="0.57" stop-color="#ece0f3"/>
      <stop offset="0.58" stop-color="#ddc8ea"/>
      <stop offset="0.59" stop-color="#d4b9e5"/>
      <stop offset="0.6" stop-color="#d1b4e3"/>
      <stop offset="0.66" stop-color="#b395d6"/>
      <stop offset="0.72" stop-color="#9c7dcb"/>
      <stop offset="0.77" stop-color="#8e6ec5"/>
      <stop offset="0.81" stop-color="#8969c3"/>
      <stop offset="1" stop-color="#b086cc"/>
    </linearGradient>
    <linearGradient id="linear-gradient-8" x1="701.827" y1="-100.282" x2="703.031" y2="-100.282" xlink:href="#linear-gradient-5"/>
    <linearGradient id="linear-gradient-9" x1="701.827" y1="-100.282" x2="703.031" y2="-100.282" xlink:href="#linear-gradient"/>
    <linearGradient id="linear-gradient-10" x1="766.549" y1="-105.394" x2="766.004" y2="-104.177" xlink:href="#linear-gradient-7"/>
    <linearGradient id="linear-gradient-11" y1="0.499" x2="1" y2="0.499" gradientUnits="objectBoundingBox">
      <stop offset="0.04" stop-color="#138bbd"/>
      <stop offset="0.23" stop-color="#169ac7"/>
      <stop offset="0.59" stop-color="#1fc3df"/>
      <stop offset="1" stop-color="#2af6ff"/>
    </linearGradient>
    <radialGradient id="radial-gradient-2" cx="0.5" cy="0.499" r="1.237" gradientTransform="translate(0.351) scale(0.298 1)" xlink:href="#radial-gradient"/>
    <linearGradient id="linear-gradient-12" x1="0.984" y1="1.143" x2="0.046" y2="-0.091" gradientUnits="objectBoundingBox">
      <stop offset="0" stop-color="#fff"/>
      <stop offset="1" stop-color="#939598"/>
    </linearGradient>
    <linearGradient id="linear-gradient-13" x1="0.467" y1="0.598" x2="0.697" y2="-0.077" gradientUnits="objectBoundingBox">
      <stop offset="0.1" stop-color="#45108a"/>
      <stop offset="1" stop-color="#7c1dc9"/>
    </linearGradient>
    <linearGradient id="linear-gradient-14" x1="0.649" y1="0.738" x2="1.727" y2="2.156" gradientUnits="objectBoundingBox">
      <stop offset="0" stop-color="#9f79c8"/>
      <stop offset="0.14" stop-color="#a580cb"/>
      <stop offset="0.33" stop-color="#b492d3"/>
      <stop offset="0.55" stop-color="#cdb0e1"/>
      <stop offset="0.58" stop-color="#d1b4e3"/>
      <stop offset="0.76" stop-color="#dbc4e9"/>
      <stop offset="1" stop-color="#ebdef3"/>
    </linearGradient>
    <linearGradient id="linear-gradient-15" x1="0.184" y1="0.389" x2="0.975" y2="0.667" xlink:href="#linear-gradient-14"/>
    <linearGradient id="linear-gradient-16" x1="-0.162" y1="0.676" x2="3.086" y2="-0.186" xlink:href="#linear-gradient-13"/>
    <linearGradient id="linear-gradient-17" x1="0.346" y1="-0.184" x2="0.637" y2="1.113" xlink:href="#linear-gradient-14"/>
    <linearGradient id="linear-gradient-18" x1="0.359" y1="1.544" x2="0.553" y2="0.102" xlink:href="#linear-gradient-13"/>
    <linearGradient id="linear-gradient-19" x1="-0.104" y1="0.619" x2="2.548" y2="0.112" xlink:href="#linear-gradient-14"/>
    <linearGradient id="linear-gradient-20" x1="0.091" y1="0.583" x2="1.983" y2="-0.085" xlink:href="#linear-gradient-14"/>
    <linearGradient id="linear-gradient-21" x1="22.792" y1="1.872" x2="27.695" y2="1.577" xlink:href="#linear-gradient-11"/>
    <linearGradient id="linear-gradient-22" x1="2.113" y1="-0.351" x2="0.008" y2="0.497" xlink:href="#linear-gradient-11"/>
    <linearGradient id="linear-gradient-23" x1="-1.903" y1="0.644" x2="3.009" y2="0.349" xlink:href="#linear-gradient-13"/>
    <linearGradient id="linear-gradient-24" x1="-0.652" y1="0.431" x2="1.587" y2="0.566" xlink:href="#linear-gradient-14"/>
    <linearGradient id="linear-gradient-25" x1="21.104" y1="1.461" x2="26.007" y2="1.166" xlink:href="#linear-gradient-11"/>
    <linearGradient id="linear-gradient-26" x1="-1.29" y1="-0.131" x2="0.999" y2="0.795" xlink:href="#linear-gradient-11"/>
    <linearGradient id="linear-gradient-27" x1="18.336" y1="1.191" x2="23.239" y2="0.896" xlink:href="#linear-gradient-11"/>
    <linearGradient id="linear-gradient-28" x1="2.078" y1="-0.827" x2="-0.424" y2="0.771" xlink:href="#linear-gradient-11"/>
    <linearGradient id="linear-gradient-29" x1="21.104" y1="3.884" x2="26.007" y2="3.343" xlink:href="#linear-gradient-11"/>
    <linearGradient id="linear-gradient-31" x1="-0.943" y1="0.721" x2="1.082" y2="0.247" xlink:href="#linear-gradient-11"/>
    <linearGradient id="linear-gradient-32" x1="-1.321" y1="0.701" x2="2.41" y2="0.29" xlink:href="#linear-gradient-13"/>
    <linearGradient id="linear-gradient-33" x1="-1.898" y1="0.645" x2="3.014" y2="0.349" xlink:href="#linear-gradient-13"/>
    <linearGradient id="linear-gradient-34" x1="-0.001" y1="0.549" x2="3.386" y2="0.22" xlink:href="#linear-gradient-13"/>
    <linearGradient id="linear-gradient-35" x1="27.778" y1="3.391" x2="30.495" y2="2.942" xlink:href="#linear-gradient-11"/>
    <linearGradient id="linear-gradient-36" x1="0.098" y1="0.566" x2="2.818" y2="0.118" xlink:href="#linear-gradient-13"/>
    <linearGradient id="linear-gradient-37" x1="0.629" y1="3.06" x2="0.468" y2="-0.147" xlink:href="#linear-gradient-13"/>
    <linearGradient id="linear-gradient-38" x1="0.527" y1="0.599" x2="0.643" y2="1.01" xlink:href="#linear-gradient-14"/>
    <linearGradient id="linear-gradient-39" x1="-2.745" y1="-14.391" x2="0.745" y2="1.624" xlink:href="#linear-gradient-14"/>
    <linearGradient id="linear-gradient-40" x1="1.264" y1="-2.067" x2="0.35" y2="1.002" xlink:href="#linear-gradient-14"/>
    <linearGradient id="linear-gradient-41" x1="7.461" y1="-2.809" x2="0.289" y2="0.596" gradientUnits="objectBoundingBox">
      <stop offset="0.02" stop-color="#45108a"/>
      <stop offset="0.29" stop-color="#3d065f"/>
      <stop offset="1" stop-color="#12054e"/>
      <stop offset="1" stop-color="#10054d"/>
    </linearGradient>
    <linearGradient id="linear-gradient-42" x1="0.819" y1="0.6" x2="0.227" y2="0.328" gradientUnits="objectBoundingBox">
      <stop offset="0" stop-color="#fff"/>
      <stop offset="1" stop-color="#bcbec0"/>
    </linearGradient>
    <linearGradient id="linear-gradient-43" x1="0.518" y1="-0.936" x2="0.493" y2="1.196" xlink:href="#linear-gradient-14"/>
  </defs>
  <g id="Groupe_1" data-name="Groupe 1" transform="translate(70.727 203.639)">
    <path id="Tracé_1" data-name="Tracé 1" d="M566.837,218.945l-52.531,30.3-52.425-30.283,52.531-30.283,52.425,30.265Zm3.92,0L514.394,186.42,457.89,219l56.363,32.543Z" transform="translate(-200.539 -149.809)" fill="#45108a"/>
    <path id="Tracé_2" data-name="Tracé 2" d="M237.6,190.024,181.47,157.6l2.278-1.324L239.9,188.7Z" transform="translate(68.235 -83.966)" fill="#45108a"/>
    <path id="Tracé_3" data-name="Tracé 3" d="M233.931,192.154,177.78,159.734l2.278-1.324,56.151,32.419Z" transform="translate(65.409 -82.334)" fill="#45108a"/>
    <path id="Tracé_4" data-name="Tracé 4" d="M203.96,179.173l-29.93-17.287,2.278-1.307,29.93,17.269Z" transform="translate(62.538 -80.673)" fill="#45108a"/>
    <path id="Tracé_5" data-name="Tracé 5" d="M608.037,242.725l-52.6,30.336L503.01,242.8l52.531-30.336,52.425,30.265Zm3.92,0L555.594,210.2l-56.5,32.6,56.363,32.525,56.5-32.578Z" transform="translate(-168.99 -131.599)" fill="#45108a"/>
    <path id="Tracé_6" data-name="Tracé 6" d="M278.8,213.8,222.67,181.377l2.278-1.307,56.134,32.419Z" transform="translate(99.784 -65.748)" fill="#45108a"/>
    <path id="Tracé_7" data-name="Tracé 7" d="M275.114,215.926,218.98,183.507l2.278-1.307,56.134,32.419Z" transform="translate(96.959 -64.117)" fill="#45108a"/>
    <path id="Tracé_8" data-name="Tracé 8" d="M245.16,202.971l-29.93-17.287,2.278-1.324,29.93,17.287Z" transform="translate(94.087 -62.463)" fill="#45108a"/>
    <path id="Tracé_9" data-name="Tracé 9" d="M511.517,250.885l-52.531,30.406-52.425-30.265,52.531-30.336,52.425,30.265Zm3.92,0L459.074,218.36l-56.5,32.578,56.345,32.543,56.5-32.6Z" transform="translate(-242.901 -125.351)" fill="#45108a"/>
    <path id="Tracé_10" data-name="Tracé 10" d="M182.284,221.956,126.15,189.537l2.278-1.307,56.134,32.4Z" transform="translate(25.873 -59.499)" fill="#45108a"/>
    <path id="Tracé_11" data-name="Tracé 11" d="M178.594,224.094,122.46,191.674l2.278-1.324,56.134,32.419Z" transform="translate(23.048 -57.876)" fill="#45108a"/>
    <path id="Tracé_12" data-name="Tracé 12" d="M148.64,211.113l-29.93-17.269,2.278-1.324,29.93,17.287Z" transform="translate(20.176 -56.214)" fill="#45108a"/>
    <path id="Tracé_13" data-name="Tracé 13" d="M552.717,274.683,500.168,305l-52.461-30.265L500.239,244.4l52.443,30.283Zm3.92,0L500.274,242.14l-56.5,32.6,56.416,32.49,56.5-32.578Z" transform="translate(-211.352 -107.141)" fill="#45108a"/>
    <path id="Tracé_14" data-name="Tracé 14" d="M223.491,245.736l-56.151-32.4,2.278-1.324,56.151,32.419Z" transform="translate(57.415 -41.29)" fill="#45108a"/>
    <path id="Tracé_15" data-name="Tracé 15" d="M219.794,247.866l-56.134-32.4,2.278-1.324,56.134,32.419Z" transform="translate(54.597 -39.659)" fill="#45108a"/>
    <path id="Tracé_16" data-name="Tracé 16" d="M189.822,234.9,159.91,217.617l2.278-1.307,29.93,17.269Z" transform="translate(51.725 -37.997)" fill="#45108a"/>
    <path id="Tracé_17" data-name="Tracé 17" d="M455.947,282.965,403.5,313.23l-52.514-30.195L403.5,252.7l52.425,30.265Zm3.92,0L403.5,250.44l-56.5,32.6,56.5,32.525,56.5-32.578Z" transform="translate(-285.454 -100.785)" fill="#45108a"/>
    <path id="Tracé_18" data-name="Tracé 18" d="M126.714,254.036l-56.134-32.4,2.278-1.324,56.134,32.419Z" transform="translate(-16.68 -34.934)" fill="#45108a"/>
    <path id="Tracé_19" data-name="Tracé 19" d="M123.024,256.166,66.89,223.747l2.278-1.307L125.3,254.859Z" transform="translate(-19.506 -33.303)" fill="#45108a"/>
    <path id="Tracé_20" data-name="Tracé 20" d="M93.07,243.193,63.14,225.924l2.278-1.324,29.93,17.287Z" transform="translate(-22.377 -31.649)" fill="#45108a"/>
    <path id="Tracé_21" data-name="Tracé 21" d="M497.147,306.755,444.6,337.091l-52.425-30.283L444.7,276.49l52.443,30.265Zm3.92,0L444.7,274.23l-56.5,32.578,56.363,32.543,56.5-32.6Z" transform="translate(-253.905 -82.568)" fill="#45108a"/>
    <path id="Tracé_22" data-name="Tracé 22" d="M167.921,277.834,111.77,245.414l2.278-1.324L170.2,276.509Z" transform="translate(14.862 -16.724)" fill="#45108a"/>
    <path id="Tracé_23" data-name="Tracé 23" d="M164.231,279.964,108.08,247.544l2.3-1.324,56.134,32.419Z" transform="translate(12.036 -15.093)" fill="#45108a"/>
    <path id="Tracé_24" data-name="Tracé 24" d="M134.26,266.983,104.33,249.7l2.3-1.307,29.93,17.287Z" transform="translate(9.164 -13.431)" fill="#45108a"/>
    <path id="Tracé_25" data-name="Tracé 25" d="M510.657,173.721,529.85,184.81a3.143,3.143,0,0,0,2.86,0c.795-.441.777-1.183,0-1.642l-19.194-11.089a3.143,3.143,0,0,0-2.861,0,.865.865,0,0,0,0,1.642Zm17.234,12.219L508.7,174.869a3.2,3.2,0,0,0-2.861,0,.883.883,0,0,0,0,1.66l19.194,11.089a3.2,3.2,0,0,0,2.86,0,.883.883,0,0,0,.035-1.677Zm-4.82,2.79-19.194-11.089a3.143,3.143,0,0,0-2.861,0c-.795.441-.777,1.183,0,1.642l19.194,11.089a3.143,3.143,0,0,0,2.861,0C523.865,189.861,523.865,189.189,523.07,188.73Z" transform="translate(-167.967 -161.054)" fill="#45108a"/>
    <path id="Tracé_26" data-name="Tracé 26" d="M456.1,454.059,318.952,374.918c-9.041-5.209-9.076-13.667-.106-18.858l322.993-186.5c8.97-5.174,23.626-5.156,32.667,0l137.182,79.194c9.041,5.3,9.076,13.685.106,18.858L488.765,454.183C479.8,459.357,465.139,459.357,456.1,454.059ZM673.287,170.3c-8.317-4.785-21.789-4.821-30.018,0L320.117,356.819c-8.246,4.768-8.211,12.555.106,17.357l137.182,79.194c8.3,4.8,21.789,4.821,30.018,0L810.487,266.889c8.246-4.768,8.211-12.537-.106-17.34Z" transform="translate(-312.145 -165.686)" fill="#45108a"/>
    <path id="Tracé_27" data-name="Tracé 27" d="M582.1,218.58c0,.6-.83,1.077-1.766,1.059s-1.854-.477-1.854-1.059.83-1.077,1.854-1.059S582.082,218,582.1,218.58Z" transform="translate(-108.196 -125.994)" fill="#45108a"/>
    <path id="Tracé_28" data-name="Tracé 28" d="M579.06,213.29h-.3v1.059h.3c7.646,0,13.879,3.62,13.914,8.034h1.854C594.793,217.387,587.712,213.29,579.06,213.29Z" transform="translate(-107.982 -129.233)" fill="#45108a"/>
    <path id="Tracé_29" data-name="Tracé 29" d="M579.07,215.7h-.3v1.077h.406c3.531,0,6.463,1.677,6.48,3.743h1.766C587.4,217.872,583.661,215.718,579.07,215.7Z" transform="translate(-107.974 -127.388)" fill="#45108a"/>
    <path id="Tracé_30" data-name="Tracé 30" d="M579.078,214.49h-.318v1.059h.3c5.6,0,10.171,2.649,10.189,5.88h1.766C591.1,217.633,585.7,214.508,579.078,214.49Z" transform="translate(-107.982 -128.314)" fill="#45108a"/>
    <path id="Tracé_31" data-name="Tracé 31" d="M310.662,171.394l-55.392-31.96,3.584-2.084,55.392,31.978Z" transform="translate(124.748 -98.461)" fill="#45108a"/>
  </g>
  <g id="Groupe_2" data-name="Groupe 2" transform="translate(0 115.679)" opacity="0.2">
    <path id="Tracé_32" data-name="Tracé 32" d="M470.65,466.866a50.358,50.358,0,0,0,25.091-6.039l349.5-201.173c9.147-5.3,14.391-13.649,14.391-22.955,0-10.188-6.321-19.671-17.322-26.027L691.546,123.637a61.8,61.8,0,0,0-30.459-7.752A50.253,50.253,0,0,0,636,121.942L286.481,323.133c-9.147,5.3-14.391,13.632-14.391,22.955,0,10.188,6.321,19.671,17.34,26.027L440.19,459.167a61.89,61.89,0,0,0,30.459,7.7Z" transform="translate(-272.09 -115.873)" opacity="0"/>
    <path id="Tracé_33" data-name="Tracé 33" d="M635.865,122.185,286.35,323.358c-8.829,5.068-13.755,13.049-13.72,21.878,0,9.641,6.092,18.664,16.669,24.721l143.962,83.132c.247.124,7.275,4.15,7.54,4.238a60.423,60.423,0,0,0,30.671,6.869,53.89,53.89,0,0,0,24.721-6.6l347.59-200.025c8.829-5.068,13.755-13.049,13.72-21.878,0-9.641-6.092-18.664-16.669-24.721L690.992,124.445a63.691,63.691,0,0,0-11.107-4.926,64.962,64.962,0,0,0-19.07-3.125,49.176,49.176,0,0,0-24.95,5.792Z" transform="translate(-271.677 -115.497)" opacity="0.09"/>
    <path id="Tracé_34" data-name="Tracé 34" d="M635.734,122.465,286.219,323.638c-8.423,4.873-13.137,12.36-13.049,20.818.088,9.111,5.862,17.658,16,23.538l144.651,83.5c.459.283,7.063,4.008,7.61,4.185a58.271,58.271,0,0,0,30.848,5.986c7.822,0,18.788-3.92,24.385-7.169L842.31,255.55c8.44-4.873,13.137-12.449,13.049-20.818,0-9.111-5.862-17.658-15.892-23.538L690.508,125.2a71.446,71.446,0,0,0-10.983-5.015,64.769,64.769,0,0,0-18.876-3.355,48.2,48.2,0,0,0-24.915,5.633Z" transform="translate(-271.264 -115.177)" opacity="0.18"/>
    <path id="Tracé_35" data-name="Tracé 35" d="M635.6,122.675,286.082,323.848c-8.07,4.662-12.5,11.848-12.36,19.759.124,8.582,5.633,16.7,15.327,22.284L434.37,449.8c.689.406,6.886,3.867,7.7,4.114a56.5,56.5,0,0,0,31.042,5.121c6.957,0,19.053-4.856,24.032-7.734L840.866,253.535c8.069-4.662,12.5-11.866,12.36-19.777-.124-8.582-5.633-16.686-15.327-22.284l-148.041-85.48a85.233,85.233,0,0,0-10.877-5.085,64.1,64.1,0,0,0-18.682-3.532,47.022,47.022,0,0,0-24.7,5.3Z" transform="translate(-270.843 -114.786)" opacity="0.27"/>
    <path id="Tracé_36" data-name="Tracé 36" d="M635.474,122.984,285.959,324.157c-7.716,4.45-11.884,11.266-11.707,18.717.177,8.052,5.4,15.7,14.638,21.03L434.9,448.2c.936.53,6.71,3.708,7.787,4.044a54.738,54.738,0,0,0,31.236,4.238c6.074,0,19.317-5.756,23.679-8.281L839.4,251.461c7.7-4.45,11.866-11.248,11.707-18.7-.177-8.052-5.421-15.715-14.656-21.03L689.294,126.763a97.116,97.116,0,0,0-10.736-5.174,64.027,64.027,0,0,0-18.523-3.814,46.016,46.016,0,0,0-24.562,5.209Z" transform="translate(-270.438 -114.495)" opacity="0.36"/>
    <path id="Tracé_37" data-name="Tracé 37" d="M635.41,123.226,285.79,324.522c-7.346,4.255-11.248,10.595-11.036,17.658.212,7.522,5.191,14.709,13.967,19.794l146.7,84.757a79.488,79.488,0,0,0,7.84,3.973,53.1,53.1,0,0,0,31.466,3.214c5.3,0,19.582-6.692,23.308-8.829L837.96,249.442c7.346-4.238,11.266-10.595,11.036-17.658-.212-7.5-5.191-14.709-13.967-19.776L688.771,127.569a114.419,114.419,0,0,0-10.595-5.3,63.375,63.375,0,0,0-18.328-4.044,45.31,45.31,0,0,0-24.438,5Z" transform="translate(-270.057 -114.172)" opacity="0.45"/>
    <path id="Tracé_38" data-name="Tracé 38" d="M635.2,123.47l-349.5,201.173c-7.063,4.044-10.595,10.082-10.383,16.616.265,7.063,4.979,13.72,13.314,18.54l147.37,85.074a70.276,70.276,0,0,0,7.928,3.9,51.4,51.4,0,0,0,31.625,2.49c4.344,0,19.865-7.61,22.955-9.411l337.967-194.5c7.063-4.044,10.594-10.082,10.365-16.6-.265-7.063-4.962-13.72-13.314-18.54l-145.34-83.927c-1.572-.9-8.723-4.662-10.506-5.3a63.568,63.568,0,0,0-18.152-4.273C650.442,118.138,641.684,119.745,635.2,123.47Z" transform="translate(-269.62 -113.781)" opacity="0.55"/>
    <path id="Tracé_39" data-name="Tracé 39" d="M635.077,123.747,285.58,324.938c-6.639,3.814-10.012,9.464-9.712,15.539.3,6.445,4.75,12.731,12.643,17.287l148.041,85.48a58.714,58.714,0,0,0,8.017,3.832c10.224,4.008,22.549,4.679,31.784,1.625,3.531,0,20.13-8.529,22.619-9.959l336.042-193.4c6.639-3.832,10.012-9.482,9.712-15.556-.3-6.445-4.75-12.731-12.643-17.287L687.626,129.1c-1.254-.724-8.97-4.856-10.383-5.421a62.913,62.913,0,0,0-17.958-4.5C650.262,118.52,641.486,120.056,635.077,123.747Z" transform="translate(-269.211 -113.457)" opacity="0.64"/>
    <path id="Tracé_40" data-name="Tracé 40" d="M634.948,124.029l-349.5,201.208c-6.268,3.62-9.376,8.829-9.041,14.479.353,5.915,4.52,11.742,11.972,16.051l148.73,85.869a55.313,55.313,0,0,0,8.1,3.673c10.471,3.849,22.955,4.22,32.031.742,2.613,0,20.395-9.447,22.266-10.595L833.6,243.147c6.268-3.62,9.376-8.829,9.023-14.479-.335-5.933-4.5-11.742-11.972-16.051L687.127,129.874c-.936-.53-9.217-5.05-10.277-5.474a61.8,61.8,0,0,0-17.781-4.75C650.046,118.908,641.217,120.409,634.948,124.029Z" transform="translate(-268.8 -113.121)" opacity="0.73"/>
    <path id="Tracé_41" data-name="Tracé 41" d="M634.822,124.3,285.307,325.472c-5.9,3.408-8.741,8.281-8.352,13.437s4.291,10.736,11.3,14.8l149.489,86.257a49.6,49.6,0,0,0,8.158,3.708c10.683,3.708,23.432,3.779,32.225-.141,1.766,0,20.659-10.365,21.9-11.071l332.087-191.2c5.9-3.408,8.741-8.281,8.352-13.437s-4.291-10.753-11.3-14.8L686.506,130.674c-.618-.371-9.429-5.3-10.135-5.562a61.8,61.8,0,0,0-17.658-4.979C649.9,119.3,641.09,120.662,634.822,124.3Z" transform="translate(-268.391 -112.791)" opacity="0.82"/>
    <path id="Tracé_42" data-name="Tracé 42" d="M634.7,124.58,285.181,325.753c-5.544,3.2-8.1,7.7-7.681,12.36s4.061,9.765,10.595,13.543l150.09,86.664a44.554,44.554,0,0,0,8.246,3.637c10.912,3.532,23.873,3.337,32.4-1.006.883,0,20.942-11.283,21.56-11.636l330.2-190.084c5.545-3.214,8.122-7.7,7.7-12.36s-4.061-9.747-10.595-13.543L685.955,131.467c-.318-.177-9.676-5.492-10.029-5.633a61.8,61.8,0,0,0-17.428-5.3C649.722,119.76,640.893,121,634.7,124.58Z" transform="translate(-267.982 -112.471)" opacity="0.91"/>
    <path id="Tracé_43" data-name="Tracé 43" d="M479.673,438.428,829.188,237.237c10.489-6.057,9.164-16.633-2.949-23.626L675.479,126.524c-12.113-7.063-30.424-7.752-40.913-1.766l-349.5,201.3c-10.489,6.057-9.164,16.633,2.949,23.626L438.69,436.715C450.856,443.725,469.185,444.484,479.673,438.428Z" transform="translate(-267.57 -112.173)"/>
  </g>
  <path id="Tracé_44" data-name="Tracé 44" d="M430.488,417.384,289.545,336c-15.892-9.182-13.914-25.215,4.45-35.81L625.41,108.8c18.364-10.595,46.139-11.742,62.031-2.56l140.943,81.366c15.892,9.182,13.914,25.215-4.45,35.81L492.519,414.806C474.155,425.4,446.38,426.636,430.488,417.384Z" transform="translate(-266.943 -12.318)" fill="url(#linear-gradient)"/>
  <path id="Tracé_45" data-name="Tracé 45" d="M430.489,416,289.546,334.611c-7.063-4.1-10.595-9.57-10.736-15.309v-12.06c.583-6.657,5.7-2.984,15.133-8.44L625.411,107.464c18.364-10.595,46.139-11.76,62.031-2.578l140.943,81.366c7.063,4.114,10.594-3.108,10.736,2.631v14.126c-.565,6.657-5.686,13.561-15.133,19.017L492.52,413.417C474.156,424.012,446.381,425.177,430.489,416Z" transform="translate(-266.944 -13.349)" fill="url(#linear-gradient-2)"/>
  <path id="Tracé_46" data-name="Tracé 46" d="M430.488,409.155,289.545,327.771c-15.892-9.182-13.914-25.215,4.45-35.81L625.41,100.624c18.364-10.595,46.139-11.76,62.031-2.578L828.385,179.43c15.892,9.164,13.914,25.2-4.45,35.81L492.519,406.577C474.155,417.172,446.38,418.337,430.488,409.155Z" transform="translate(-266.943 -18.587)" fill="url(#linear-gradient-3)"/>
  <path id="Tracé_47" data-name="Tracé 47" d="M289.547,281.8,430.49,363.169c15.892,9.182,43.667,8.034,62.031-2.578L823.937,169.253c9.659-5.58,14.8-12.66,15.168-19.423.388,7.257-4.75,15.027-15.168,21.048L492.521,362.18c-18.364,10.595-46.139,11.76-62.031,2.578L289.547,283.374c-7.54-4.344-11.036-10.224-10.718-16.351C279.146,272.568,282.678,277.83,289.547,281.8Z" transform="translate(-266.945 25.81)" fill="url(#radial-gradient)"/>
  <path id="Tracé_48" data-name="Tracé 48" d="M295.291,292.969,627.113,101.331c16.086-9.288,40.436-10.294,54.385-2.243l140.184,80.942c13.95,8.052,12.2,22.107-3.9,31.4L485.958,403.046c-16.086,9.305-40.436,10.312-54.368,2.26l-140.2-80.942C277.457,316.312,279.2,302.257,295.291,292.969Z" transform="translate(-264.514 -17.21)" fill="url(#linear-gradient-4)"/>
  <path id="Tracé_49" data-name="Tracé 49" d="M297.994,293.6l330.2-190.7c13.473-7.787,33.85-8.635,45.521-1.889l137.2,79.212c11.672,6.745,10.206,18.505-3.267,26.275l-330.2,190.7c-13.473,7.787-33.85,8.617-45.5,1.889L294.727,319.906C283.055,313.125,284.521,301.365,297.994,293.6Z" transform="translate(-260.789 -15.065)" fill="#1f0d3d"/>
  <path id="Tracé_50" data-name="Tracé 50" d="M670.733,102.57c-11-6.357-28.764-6.374-39.694,0L297.31,295.3c-10.93,6.3-10.877,16.563.124,22.955l134.021,77.376c11,6.339,28.764,6.374,39.694,0L804.878,202.866c10.93-6.3,10.877-16.563-.124-22.955Z" transform="translate(-259.028 -14.035)" fill="#3d065f"/>
  <path id="Tracé_51" data-name="Tracé 51" d="M450.156,396.4a37.505,37.505,0,0,0,18.364-4.344l333.817-192.68c4.4-2.525,6.8-5.739,6.8-9.041s-2.454-6.586-6.922-9.164L668.192,103.779a37.964,37.964,0,0,0-18.611-4.414,37.311,37.311,0,0,0-18.364,4.344L297.488,296.441c-4.379,2.525-6.8,5.739-6.8,9.041s2.454,6.586,6.922,9.164l134.021,77.393a37.964,37.964,0,0,0,18.523,4.361Z" transform="translate(-257.847 -12.842)" fill="#42127d"/>
  <path id="Tracé_52" data-name="Tracé 52" d="M553.612,196.213l15.362-8.829a8.317,8.317,0,0,0,3.531-6.639h0c0-2.543-1.554-3.726-3.531-2.613l-15.362,8.829a8.352,8.352,0,0,0-3.532,6.639h0C550.151,196.142,551.7,197.308,553.612,196.213Z" transform="translate(-59.216 47.162)" fill="url(#linear-gradient-5)"/>
  <path id="Tracé_53" data-name="Tracé 53" d="M553.612,196.213l15.362-8.829a8.317,8.317,0,0,0,3.531-6.639h0c0-2.543-1.554-3.726-3.531-2.613l-15.362,8.829a8.352,8.352,0,0,0-3.532,6.639h0C550.151,196.142,551.7,197.308,553.612,196.213Z" transform="translate(-59.216 47.162)" fill="url(#linear-gradient-6)"/>
  <path id="Tracé_54" data-name="Tracé 54" d="M551.813,195.338a1.977,1.977,0,0,0,.936-.3l15.362-8.829a7.487,7.487,0,0,0,3.019-5.862c0-.971-.318-2.137-1.2-2.137a1.925,1.925,0,0,0-.918.3l-15.362,8.829a7.4,7.4,0,0,0-3.02,5.845C550.63,194.19,550.948,195.338,551.813,195.338Z" transform="translate(-58.795 47.542)" fill="url(#linear-gradient-7)"/>
  <path id="Tracé_55" data-name="Tracé 55" d="M538.082,205.174l15.362-8.829a8.317,8.317,0,0,0,3.531-6.639h0c0-2.56-1.554-3.726-3.531-2.613l-15.362,8.829a8.316,8.316,0,0,0-3.532,6.639h0C534.6,205.1,536.157,206.287,538.082,205.174Z" transform="translate(-71.108 54.022)" fill="url(#linear-gradient-8)"/>
  <path id="Tracé_56" data-name="Tracé 56" d="M538.082,205.174l15.362-8.829a8.317,8.317,0,0,0,3.531-6.639h0c0-2.56-1.554-3.726-3.531-2.613l-15.362,8.829a8.316,8.316,0,0,0-3.532,6.639h0C534.6,205.1,536.157,206.287,538.082,205.174Z" transform="translate(-71.108 54.022)" fill="url(#linear-gradient-9)"/>
  <path id="Tracé_57" data-name="Tracé 57" d="M536.283,204.308a1.925,1.925,0,0,0,.918-.3l15.362-8.829a7.469,7.469,0,0,0,3.02-5.862c0-.989-.3-2.137-1.183-2.137a1.925,1.925,0,0,0-.918.3l-15.362,8.829a7.47,7.47,0,0,0-3.02,5.862C535.1,203.142,535.4,204.308,536.283,204.308Z" transform="translate(-70.687 54.411)" fill="url(#linear-gradient-10)"/>
  <path id="Tracé_58" data-name="Tracé 58" d="M460.72,302.194,684.636,172.357C694.083,166.9,699.2,160,699.769,153.34V161.8c-.565,6.657-5.686,13.543-15.133,19Z" transform="translate(-127.645 23.995)" fill="#3d065f"/>
  <path id="Tracé_59" data-name="Tracé 59" d="M356.614,256.186,313.67,231.465c-4.238-2.454-3.708-6.745,1.2-9.57l40.189-23.2c4.891-2.825,12.36-3.125,16.545-.689l42.926,24.721c4.255,2.454,3.708,6.728-1.183,9.553l-40.189,23.2C368.268,258.34,360.852,258.64,356.614,256.186Z" transform="translate(-242.44 61.439)" fill="url(#linear-gradient-11)"/>
  <path id="Tracé_60" data-name="Tracé 60" d="M413.324,217.9l-40.189,23.2c-4.891,2.825-12.36,3.125-16.545.689l-42.943-24.721a5.3,5.3,0,0,1-2.772-3.337,4.679,4.679,0,0,0,2.772,4.856l42.943,24.721c4.238,2.454,11.654,2.154,16.545-.689l40.189-23.2c3.072-1.766,4.414-4.114,3.955-6.215a7.328,7.328,0,0,1-3.955,4.7Z" transform="translate(-242.417 74.336)" fill="url(#radial-gradient-2)"/>
  <path id="Tracé_61" data-name="Tracé 61" d="M317.531,252.958l25.233,14.55h0c0-4.609-2.808-9.959-6.268-11.954l-12.784-7.328c-3.531-2-6.251.124-6.251,4.732Z" transform="translate(-237.347 100.583)"/>
  <path id="Tracé_62" data-name="Tracé 62" d="M433.384,239.429l-23.379-13.49c-2.631-1.519-2.631-3.973,0-5.474l18.011-10.4a10.6,10.6,0,0,1,8.917-.247l6.5-3.761a20.518,20.518,0,0,1,18.505,0l5.845,3.373c5.1,2.966,5.138,7.752,0,10.683l-6.5,3.761c2.137,1.519,1.978,3.743-.441,5.138l-17.993,10.418a10.453,10.453,0,0,1-9.464,0ZM435.856,211a7.063,7.063,0,0,0-6.286,0l-18.064,10.347a1.907,1.907,0,0,0,0,3.62l23.4,13.49a6.887,6.887,0,0,0,6.268,0l18.011-10.4c1.766-.989,1.766-2.613,0-3.532l-1.095-.636,8.07-4.644c4.2-2.437,4.185-6.392,0-8.829l-5.845-3.373a16.951,16.951,0,0,0-15.309,0l-8.07,4.644Zm18.964,10.965-14.568-8.4,6.6-3.814a12.361,12.361,0,0,1,11.213,0l3.32,1.907c3.108,1.766,3.125,4.7,0,6.48Zm-11.372-8.4,11.372,6.569,5.015-2.9c2.207-1.271,2.19-3.355,0-4.644l-3.32-1.907a8.829,8.829,0,0,0-8.017,0Z" transform="translate(-167.991 67.178)" fill="#a56ef4"/>
  <path id="Tracé_63" data-name="Tracé 63" d="M422.71,222.847l-4.52-2.613,4.573-2.631c-.441-1.148.141-2.366,1.589-3.2a9.306,9.306,0,0,1,8.423,0c2.348,1.342,2.348,3.531,0,4.873a9.305,9.305,0,0,1-5.527.918Z" transform="translate(-160.212 74.489)" fill="#a56ef4"/>
  <path id="Tracé_64" data-name="Tracé 64" d="M371.768,207.043a33.92,33.92,0,0,0-25.48-.212c-5.633,2.472-8.688,6.357-8.193,10.418a5.121,5.121,0,0,1-3.055,4.856l-3.055,1.766c-1.625.936-1.889,2.348-.865,3.532l-2.984,1.766a2,2,0,0,0,0,3.761l2.419,1.395a7.222,7.222,0,0,0,6.533,0l2.984-1.766a8.1,8.1,0,0,0,6.021-.494l3.037-1.766a16.369,16.369,0,0,1,8.6-1.766A30.654,30.654,0,0,0,373.622,225C382.4,220.022,381.762,211.6,371.768,207.043Zm-13.9,20.147a19.953,19.953,0,0,0-10.33,2.154l-3.055,1.766a4.485,4.485,0,0,1-4.026,0l-2.437-1.413,14.126-8.123H360.5a1.307,1.307,0,0,0,1.042-.406c.177-.247,0-.53-.247-.706l-9.235-5.3a1.766,1.766,0,0,0-1.236-.141c-.424.106-.689.335-.689.6v5.3l-13.7,7.893-2.808-1.607c-1.112-.653-1.13-1.766,0-2.331l3.055-1.766c2.631-1.519,3.973-3.655,3.708-5.88-.441-3.62,2.3-7.063,7.31-9.288a30.124,30.124,0,0,1,22.69.194,16.189,16.189,0,0,1,1.66.848c7.275,4.2,7.31,11.018,0,15.186a27.317,27.317,0,0,1-14.179,3.019Z" transform="translate(-230.189 67.638)" fill="#fff"/>
  <path id="Tracé_65" data-name="Tracé 65" d="M419.883,233.335,416.9,231.57a10.736,10.736,0,0,0-9.676,0L387,243.241a23.378,23.378,0,0,0-13.579,2.472c-6.021,3.531-6,9.164,0,12.661a24.3,24.3,0,0,0,21.931,0c3.532-2.066,5.138-4.962,4.273-7.84l20.218-11.672C422.567,237.379,422.549,234.872,419.883,233.335ZM418.329,238l-21.013,12.166.124.336c.953,2.56-.371,5.191-3.532,7.063a20.836,20.836,0,0,1-18.788,0c-5.209-3-5.3-7.875,0-10.859a20.218,20.218,0,0,1,12.148-2.048h.6l21.048-12.148a7.222,7.222,0,0,1,6.533,0l2.984,1.766C420.112,235.278,420.13,236.973,418.329,238Z" transform="translate(-197.944 87.521)" fill="#a56ef4"/>
  <path id="Tracé_66" data-name="Tracé 66" d="M406.9,236.472l-2.984-1.766a2.578,2.578,0,0,0-2.384,0l-15.062,8.688-2.137-.265a15.68,15.68,0,0,0-9.482,1.589c-4.026,2.331-4.008,6.127,0,8.458a16.192,16.192,0,0,0,14.638,0c2.472-1.43,3.531-3.532,2.772-5.474l-.459-1.236,15.044-8.705C407.548,237.479,407.548,236.861,406.9,236.472Z" transform="translate(-195.71 90.582)" fill="#a56ef4"/>
  <path id="Tracé_67" data-name="Tracé 67" d="M421.222,187.691l-2.348-1.36,1.66-.971a1.271,1.271,0,0,0,0-2.4L417,180.946a4.644,4.644,0,0,0-4.15,0l-1.678.971-3.284-1.907a9.57,9.57,0,0,0-8.44.318l-27.157,15.68a3.991,3.991,0,0,0-2.313,3.267,3.107,3.107,0,0,0,1.766,2.684l2.349,1.36-1.766,1.042a1.271,1.271,0,0,0,0,2.4l3.532,2.013a4.609,4.609,0,0,0,4.132,0l1.766-1.042,3.284,1.907a7.54,7.54,0,0,0,3.726.865,9.624,9.624,0,0,0,4.715-1.183l27.157-15.68a3.991,3.991,0,0,0,2.313-3.267,3.125,3.125,0,0,0-1.731-2.684Zm-1.466,4.344L392.6,207.714a7.716,7.716,0,0,1-6.6.3l-13.279-7.663c-.318-.177-.848-.565-.848-1.077s.512-1.165,1.377-1.66l27.157-15.68a7.8,7.8,0,0,1,3.8-.936,5.738,5.738,0,0,1,2.808.618l13.279,7.681c.318.177.848.565.848,1.077s-.583,1.059-1.448,1.572Z" transform="translate(-197.13 48.285)" fill="#a56ef4"/>
  <path id="Tracé_68" data-name="Tracé 68" d="M111.143,136.506l8.228,4.75-15.062,4.079,24.156-3.214-7.434-4.291,13.879-3.161Z" transform="translate(79.876 103.125)" fill="#a56ef4"/>
  <path id="Tracé_69" data-name="Tracé 69" d="M407.833,233.994a15.468,15.468,0,0,1-7.628-1.766l-42.943-24.721a5.774,5.774,0,0,1-3.3-4.909c0-2.278,1.642-4.52,4.5-6.18l40.189-23.2a20.2,20.2,0,0,1,9.8-2.454,15.521,15.521,0,0,1,7.628,1.766l42.926,24.721a5.792,5.792,0,0,1,3.3,4.926c0,2.26-1.624,4.52-4.485,6.163L417.6,231.54a20.059,20.059,0,0,1-9.765,2.454Zm.618-61.537a18.293,18.293,0,0,0-8.917,2.225l-40.206,23.2c-2.3,1.324-3.62,3.019-3.62,4.644a4.149,4.149,0,0,0,2.419,3.39l42.943,24.721a13.755,13.755,0,0,0,6.745,1.536,18.382,18.382,0,0,0,8.829-2.225l40.189-23.2c2.3-1.324,3.531-3,3.531-4.626a4.044,4.044,0,0,0-2.419-3.39L415.02,174.012a13.809,13.809,0,0,0-6.569-1.554Z" transform="translate(-209.397 41.835)" fill="#a56ef4"/>
  <path id="Tracé_70" data-name="Tracé 70" d="M451.123,258.825a15.468,15.468,0,0,1-7.628-1.766L400.57,232.338a5.756,5.756,0,0,1-3.32-4.909c0-2.278,1.642-4.52,4.5-6.163l40.189-23.2a20.023,20.023,0,0,1,9.8-2.472,15.468,15.468,0,0,1,7.628,1.766L502.3,222.079a5.809,5.809,0,0,1,3.32,4.926c0,2.278-1.642,4.52-4.5,6.163l-40.189,23.184a20.077,20.077,0,0,1-9.8,2.472Zm.618-61.554a18.293,18.293,0,0,0-8.917,2.225l-40.189,23.2c-2.3,1.324-3.62,3.019-3.62,4.644a4.114,4.114,0,0,0,2.437,3.39l42.926,24.721a13.809,13.809,0,0,0,6.745,1.536,18.329,18.329,0,0,0,8.917-2.225l40.189-23.132c2.3-1.324,3.62-3.019,3.62-4.644a4.114,4.114,0,0,0-2.437-3.39l-42.926-24.721A13.809,13.809,0,0,0,451.741,197.27Z" transform="translate(-176.247 60.849)" fill="#a56ef4"/>
  <path id="Tracé_71" data-name="Tracé 71" d="M407.473,283.985a15.663,15.663,0,0,1-7.628-1.766L356.92,257.5a5.792,5.792,0,0,1-3.32-4.909c0-2.278,1.642-4.52,4.5-6.18l40.189-23.343a20.2,20.2,0,0,1,9.8-2.454,15.662,15.662,0,0,1,7.628,1.766L458.645,247.1a5.809,5.809,0,0,1,3.32,4.909c0,2.278-1.642,4.538-4.5,6.18l-40.189,23.2A20.2,20.2,0,0,1,407.473,283.985Zm.618-61.537a18.293,18.293,0,0,0-8.829,2.225l-40.189,23.2c-2.3,1.324-3.531,3.019-3.531,4.644a4.044,4.044,0,0,0,2.437,3.373L400.9,280.613a13.808,13.808,0,0,0,6.745,1.536,18.328,18.328,0,0,0,8.917-2.225l40.189-23.2c2.3-1.324,3.62-3.019,3.62-4.644a4.114,4.114,0,0,0-2.437-3.373l-42.926-24.721A13.808,13.808,0,0,0,408.091,222.449Z" transform="translate(-209.673 80.009)" fill="#a56ef4"/>
  <path id="Tracé_72" data-name="Tracé 72" d="M343.973,257.663a.883.883,0,0,1-.883-.883v-.212a.9.9,0,0,1,.883-.883.883.883,0,0,1,.883.883v.212A.883.883,0,0,1,343.973,257.663Zm0-3.743a.883.883,0,0,1-.883-.883v-3.532a.9.9,0,0,1,.883-.883.883.883,0,0,1,.883.883v3.532A.883.883,0,0,1,343.973,253.92Zm0-7.063a.883.883,0,0,1-.883-.883v-3.532a.9.9,0,0,1,.883-.883.883.883,0,0,1,.883.883v3.532A.883.883,0,0,1,343.973,246.857Zm0-7.063a.883.883,0,0,1-.883-.883v-3.532a.9.9,0,0,1,.883-.883.883.883,0,0,1,.883.883v3.532A.883.883,0,0,1,343.973,239.794Zm0-7.063a.883.883,0,0,1-.883-.883v-3.532a.9.9,0,0,1,.883-.883.883.883,0,0,1,.883.883v3.532A.883.883,0,0,1,343.973,232.731Zm0-7.063a.883.883,0,0,1-.883-.883v-3.532a.9.9,0,0,1,.883-.883.883.883,0,0,1,.883.883v3.532A.883.883,0,0,1,343.973,225.668Zm0-7.063a.883.883,0,0,1-.883-.883V214.19a.9.9,0,0,1,.883-.883.883.883,0,0,1,.883.883v3.532A.883.883,0,0,1,343.973,218.6Zm0-7.063a.883.883,0,0,1-.883-.883v-3.532a.9.9,0,0,1,.883-.883.883.883,0,0,1,.883.883v3.532A.883.883,0,0,1,343.973,211.542Zm0-7.063a.883.883,0,0,1-.883-.883v-3.532a.9.9,0,0,1,.883-.883.883.883,0,0,1,.883.883V203.6A.883.883,0,0,1,343.973,204.479Zm0-7.063a.883.883,0,0,1-.883-.883V193a.9.9,0,0,1,.883-.883.883.883,0,0,1,.883.883v3.532A.883.883,0,0,1,343.973,197.416Zm0-7.063a.883.883,0,0,1-.883-.883v-3.532a.9.9,0,0,1,.883-.883.883.883,0,0,1,.883.883v3.532A.883.883,0,0,1,343.973,190.352Zm0-7.063a.883.883,0,0,1-.883-.883v-3.532a.9.9,0,0,1,.883-.883.883.883,0,0,1,.883.883v3.532A.883.883,0,0,1,343.973,183.289Zm0-7.063a.883.883,0,0,1-.883-.883v-3.532a.9.9,0,0,1,.883-.883.883.883,0,0,1,.883.883v3.532A.883.883,0,0,1,343.973,176.226Zm0-7.063a.883.883,0,0,1-.883-.883v-3.532a.9.9,0,0,1,.883-.883.883.883,0,0,1,.883.883v3.532A.883.883,0,0,1,343.973,169.163Zm0-7.063a.883.883,0,0,1-.883-.883v-3.532a.9.9,0,0,1,.883-.883.883.883,0,0,1,.883.883v3.532A.883.883,0,0,1,343.973,162.1Zm0-7.063a.883.883,0,0,1-.883-.883v-3.532a.9.9,0,0,1,.883-.883.883.883,0,0,1,.883.883v3.532A.883.883,0,0,1,343.973,155.037Z" transform="translate(-217.721 25.741)" fill="#7c1dc9"/>
  <path id="Tracé_73" data-name="Tracé 73" d="M131.72,149.294l33.744,19.317.247,10.948,44.8,26.063,64.4,25.568L398,201.843l-10.824-5.032,43.65-65.28L296.8,50.8Z" transform="translate(100.866 38.901)" fill="url(#linear-gradient-12)"/>
  <path id="Tracé_74" data-name="Tracé 74" d="M174.11,17.71l130.3,75.8,74.921,10.7-130.384-74.3Z" transform="translate(133.327 13.562)" fill="url(#linear-gradient-13)"/>
  <path id="Tracé_75" data-name="Tracé 75" d="M247.88,60.64V188.516l13.455-7.61.018-2.808,47.887-28.34,2.913,1.077,10.683-6.321V71.34Z" transform="translate(189.817 46.436)" fill="url(#linear-gradient-14)"/>
  <path id="Tracé_76" data-name="Tracé 76" d="M304.405,93.514V221.39l-130.3-75.857V17.71Z" transform="translate(133.327 13.562)" fill="url(#linear-gradient-15)"/>
  <path id="Tracé_77" data-name="Tracé 77" d="M253.76,106.456,310.776,72.2v67.929l-3.125,1.854-2.913-1.077-47.887,28.34-.018,2.808-3.072,1.819Z" transform="translate(194.319 55.288)" fill="#d1b4e3"/>
  <path id="Tracé_78" data-name="Tracé 78" d="M303.4,137.766V76.3L255.51,105.064v61.042Z" transform="translate(195.659 58.428)" fill="url(#linear-gradient-16)"/>
  <path id="Tracé_79" data-name="Tracé 79" d="M303.4,80.979V76.3L255.51,105.064v4.255Z" transform="translate(195.659 58.428)" fill="#e6e7e8"/>
  <path id="Tracé_80" data-name="Tracé 80" d="M303.4,80.54V78.05L255.51,106.814v2.066Z" transform="translate(195.659 59.768)" fill="#e6e7e8"/>
  <path id="Tracé_81" data-name="Tracé 81" d="M303.4,83.28V80.79L255.51,109.554v2.066Z" transform="translate(195.659 61.866)" fill="#e6e7e8"/>
  <path id="Tracé_82" data-name="Tracé 82" d="M303.4,86.03V83.54L255.51,112.3v2.066Z" transform="translate(195.659 63.972)" fill="#e6e7e8"/>
  <path id="Tracé_83" data-name="Tracé 83" d="M303.4,88.77V86.28L255.51,115.044v2.066Z" transform="translate(195.659 66.07)" fill="#e6e7e8"/>
  <path id="Tracé_84" data-name="Tracé 84" d="M303.4,91.52V89.03L255.51,117.794v2.066Z" transform="translate(195.659 68.176)" fill="#e6e7e8"/>
  <path id="Tracé_85" data-name="Tracé 85" d="M303.4,94.26V91.77L255.51,120.534V122.6Z" transform="translate(195.659 70.274)" fill="#e6e7e8"/>
  <path id="Tracé_86" data-name="Tracé 86" d="M303.4,97.01V94.52L255.51,123.284v2.066Z" transform="translate(195.659 72.38)" fill="#e6e7e8"/>
  <path id="Tracé_87" data-name="Tracé 87" d="M303.4,99.75V97.26L255.51,126.024v2.066Z" transform="translate(195.659 74.478)" fill="#e6e7e8"/>
  <path id="Tracé_88" data-name="Tracé 88" d="M303.4,102.507V100L255.51,128.764v2.066Z" transform="translate(195.659 76.576)" fill="#e6e7e8"/>
  <path id="Tracé_89" data-name="Tracé 89" d="M303.4,105.24v-2.49L255.51,131.514v2.066Z" transform="translate(195.659 78.682)" fill="#e6e7e8"/>
  <path id="Tracé_90" data-name="Tracé 90" d="M303.4,107.98v-2.49L255.51,134.254v2.066Z" transform="translate(195.659 80.78)" fill="#e6e7e8"/>
  <path id="Tracé_91" data-name="Tracé 91" d="M303.4,110.73v-2.49L255.51,137v2.066Z" transform="translate(195.659 82.886)" fill="#e6e7e8"/>
  <path id="Tracé_92" data-name="Tracé 92" d="M265.035,136.763v81.419L131.72,142.1V60.2Z" transform="translate(100.866 46.099)" fill="url(#linear-gradient-17)"/>
  <path id="Tracé_93" data-name="Tracé 93" d="M265.035,183.621,327.56,76.087,194.246,0,131.72,107.076Z" transform="translate(100.866)" fill="url(#linear-gradient-18)"/>
  <path id="Tracé_94" data-name="Tracé 94" d="M137,140.334V68.98l28.464,16.7V156.9Z" transform="translate(104.909 52.822)" fill="#f1e8f6"/>
  <path id="Tracé_95" data-name="Tracé 95" d="M161.034,85.107v64.079L138.75,136.225V72.04Z" transform="translate(106.249 55.165)" fill="#d1b4e3"/>
  <path id="Tracé_96" data-name="Tracé 96" d="M207.22,231.637v-80.66L269.463,42.63V196.8Z" transform="translate(158.681 32.644)" fill="url(#linear-gradient-19)"/>
  <path id="Tracé_97" data-name="Tracé 97" d="M233.939,46.45l-57.6,33.691V208.953l9.376-5.492V121.954Z" transform="translate(135.034 35.57)" fill="url(#linear-gradient-20)"/>
  <path id="Tracé_98" data-name="Tracé 98" d="M140.35,134.075l19.459,11.319V84.387L140.35,72.98Z" transform="translate(107.474 55.885)" fill="url(#linear-gradient-21)"/>
  <path id="Tracé_99" data-name="Tracé 99" d="M140.35,134.075l19.459-49.688L140.35,72.98Z" transform="translate(107.474 55.885)" opacity="0.5" fill="url(#linear-gradient-22)"/>
  <path id="Tracé_100" data-name="Tracé 100" d="M412.45,123.34v61.1l19.423,11.319V134.747Zm17.9,69.73-16.369-9.517V126.042l16.369,9.588Z" transform="translate(-164.608 5.525)" opacity="0.5" fill="url(#linear-gradient-23)"/>
  <path id="Tracé_101" data-name="Tracé 101" d="M195.767,76.925V205.737l-44.8-26.063V50.65Z" transform="translate(115.607 38.786)" fill="url(#linear-gradient-24)"/>
  <path id="Tracé_102" data-name="Tracé 102" d="M155.59,157.167V85.83l28.482,16.686v71.231Z" transform="translate(119.145 65.725)" fill="#f1e8f6"/>
  <path id="Tracé_103" data-name="Tracé 103" d="M179.642,101.947v64.079l-22.3-12.961V88.88Z" transform="translate(120.485 68.061)" fill="#d1b4e3"/>
  <path id="Tracé_104" data-name="Tracé 104" d="M186.11,168.264V96.91L214.574,113.6v71.231Z" transform="translate(142.516 74.21)" fill="#f1e8f6"/>
  <path id="Tracé_105" data-name="Tracé 105" d="M210.144,113.037v64.079L187.86,164.138V99.97Z" transform="translate(143.856 76.553)" fill="#d1b4e3"/>
  <path id="Tracé_106" data-name="Tracé 106" d="M155.59,97.229V58.7l28.482,16.7v38.388Z" transform="translate(119.145 44.95)" fill="#f1e8f6"/>
  <path id="Tracé_107" data-name="Tracé 107" d="M179.642,74.827v31.254L157.34,93.1V61.76Z" transform="translate(120.485 47.293)" fill="#d1b4e3"/>
  <path id="Tracé_108" data-name="Tracé 108" d="M158.95,150.933l19.459,11.319V101.227L158.95,89.82Z" transform="translate(121.718 68.781)" fill="url(#linear-gradient-25)"/>
  <path id="Tracé_109" data-name="Tracé 109" d="M158.95,150.933l19.459-49.706L158.95,89.82Z" transform="translate(121.718 68.781)" fill="url(#linear-gradient-26)"/>
  <path id="Tracé_110" data-name="Tracé 110" d="M189.46,162.005l19.459,11.319V112.317L189.46,100.91Z" transform="translate(145.081 77.273)" fill="url(#linear-gradient-27)"/>
  <path id="Tracé_111" data-name="Tracé 111" d="M189.46,162.005l19.459-49.688L189.46,100.91Z" transform="translate(145.081 77.273)" opacity="0.5" fill="url(#linear-gradient-28)"/>
  <path id="Tracé_112" data-name="Tracé 112" d="M158.95,90.97l19.459,11.319V74.107L158.95,62.7Z" transform="translate(121.718 48.013)" fill="url(#linear-gradient-29)"/>
  <path id="Tracé_113" data-name="Tracé 113" d="M461.56,151.27v61.1l19.423,11.319V162.677Zm17.9,69.73L463.1,211.482V153.954l16.369,9.606Z" transform="translate(-127.001 26.913)" opacity="0.5" fill="url(#linear-gradient-23)"/>
  <path id="Tracé_114" data-name="Tracé 114" d="M158.95,90.97l19.459-16.863L158.95,62.7Z" transform="translate(121.718 48.013)" fill="url(#linear-gradient-31)"/>
  <path id="Tracé_115" data-name="Tracé 115" d="M431,113.06v28.252l19.423,11.319V124.379Zm17.975,36.975-16.351-9.517V115.8l16.351,9.588Z" transform="translate(-150.403 -2.347)" opacity="0.5" fill="url(#linear-gradient-32)"/>
  <path id="Tracé_116" data-name="Tracé 116" d="M431,140.18v61.113l19.423,11.319V151.587Zm17.9,69.748-16.351-9.535V142.882L448.9,152.47Z" transform="translate(-150.403 18.421)" opacity="0.5" fill="url(#linear-gradient-33)"/>
  <path id="Tracé_117" data-name="Tracé 117" d="M216.67,125.676l4.891-2.808,28.711-16.7V64.51Z" transform="translate(165.917 49.399)" fill="#d1b4e3"/>
  <path id="Tracé_118" data-name="Tracé 118" d="M221.32,111.984l22.3-12.961V71.53Z" transform="translate(169.478 54.775)" fill="#f1e8f6"/>
  <path id="Tracé_119" data-name="Tracé 119" d="M216.97,112.159,250.043,93.23v71.354L216.97,183.372Z" transform="translate(166.147 71.392)" fill="#d1b4e3"/>
  <path id="Tracé_120" data-name="Tracé 120" d="M218.72,111.581v64.079l26.893-15.2V96.29Z" transform="translate(167.487 73.735)" fill="#f1e8f6"/>
  <path id="Tracé_121" data-name="Tracé 121" d="M243.035,158.394V97.14L218.72,110.931V172.1Z" transform="translate(167.487 74.386)" fill="url(#linear-gradient-34)"/>
  <path id="Tracé_122" data-name="Tracé 122" d="M490.81,161.291v61.254l24.314-13.7V147.5Zm22.778,46.563L492.4,219.808V162.191l21.189-12.043Z" transform="translate(-104.603 24.026)" fill="#e6e7e8"/>
  <path id="Tracé_123" data-name="Tracé 123" d="M240.017,74.18,222.66,105.664l17.357-10.082Z" transform="translate(170.504 56.804)" fill="url(#linear-gradient-35)"/>
  <path id="Tracé_124" data-name="Tracé 124" d="M494.76,156.023l17.34-10.083v-21.4Zm15.8-10.983-11.76,6.8,11.76-21.348Z" transform="translate(-101.578 6.444)" opacity="0.5" fill="url(#linear-gradient-36)"/>
  <path id="Tracé_125" data-name="Tracé 125" d="M195.767,91.443l57.6-33.691-44.8-26.063-57.6,33.479Z" transform="translate(115.607 24.267)" fill="url(#linear-gradient-37)"/>
  <path id="Tracé_126" data-name="Tracé 126" d="M212.8,166.092v3.761l62.031-35.192V130.9Z" transform="translate(162.954 100.238)" fill="url(#linear-gradient-38)"/>
  <path id="Tracé_127" data-name="Tracé 127" d="M217.1,153.334V157.1l-9.888-5.809V147.56Z" transform="translate(158.673 112.996)" fill="url(#linear-gradient-39)"/>
  <path id="Tracé_128" data-name="Tracé 128" d="M207.21,162.753l9.888,5.774,62.014-35.192-9.659-5.615Z" transform="translate(158.673 97.803)" fill="url(#linear-gradient-40)"/>
  <path id="Tracé_129" data-name="Tracé 129" d="M495.378,169.879a3.532,3.532,0,0,1-1.589,2.737c-.883.512-1.589.106-1.589-.9a3.532,3.532,0,0,1,1.589-2.755C494.654,168.467,495.378,168.873,495.378,169.879Z" transform="translate(-103.538 40.299)" fill="url(#linear-gradient-41)"/>
  <path id="Tracé_130" data-name="Tracé 130" d="M181.65,121.954l48.223-75.5-34.662,83.273Z" transform="translate(139.1 35.57)" fill="url(#linear-gradient-42)"/>
  <path id="Tracé_131" data-name="Tracé 131" d="M207.21,162.753l71.9-29.418-9.659-5.615Z" transform="translate(158.673 97.803)" fill="url(#linear-gradient-43)"/>
  <path id="Tracé_132" data-name="Tracé 132" d="M282.63,76.982v61.466l2.913,1.077V75.41Z" transform="translate(216.427 57.746)" fill="#f1e8f6"/>
  <path id="Tracé_133" data-name="Tracé 133" d="M509.072,272l-22.955-13.331L466.129,270.2l22.955,13.3Zm-19.988,10.047-20.412-11.8,17.393-10.03L506.477,272Zm32.826-16.1L496.553,251.31a10.259,10.259,0,0,0-9.27,0L455.87,269.444l34.662,20.024,31.413-18.134c2.507-1.5,2.507-3.832-.071-5.386Zm-31.378,22-32.066-18.523,26.592-15.362,32.084,18.523Zm27.9-16.1-32.119-18.47,2.225-1.289a7.452,7.452,0,0,1,6.692,0l25.356,14.638a2.048,2.048,0,0,1,0,3.867Zm-2.949-6.233a3.143,3.143,0,0,0-2.808,0c-.777.459-.777,1.183,0,1.625a3.126,3.126,0,0,0,2.825,0c.742-.441.742-1.165-.053-1.624Zm-6.109-3.532a3.178,3.178,0,0,0-2.825,0,.861.861,0,0,0,0,1.625,3.037,3.037,0,0,0,2.807,0c.759-.441.759-1.165-.018-1.624Zm-6.127-3.532a3.143,3.143,0,0,0-2.808,0c-.777.442-.777,1.165,0,1.625a3.073,3.073,0,0,0,2.825,0c.742-.441.724-1.165-.053-1.625Zm-6.127-3.532a3.09,3.09,0,0,0-2.808,0c-.777.441-.777,1.165,0,1.625a3.178,3.178,0,0,0,2.825,0c.742-.441.742-1.165-.053-1.625Z" transform="translate(-131.359 102.672)" fill="#a56ef4"/>
  <path id="Tracé_134" data-name="Tracé 134" d="M450.948,307.494l5.209-3c2.437-1.413,2.419-3.726,0-5.138l-22.6-13.049a9.818,9.818,0,0,0-8.829,0l-5.3,3a10.965,10.965,0,0,0-6.922,1.059L400.5,297.288l1.236.706,5.3-3.019L441.2,314.7l-5.3,3.037,1.236.706,12.007-6.939C450.983,310.407,451.583,308.871,450.948,307.494Zm-25.091-20.5a7.063,7.063,0,0,1,6.427,0L454.9,300.042a1.96,1.96,0,0,1,0,3.708l-4.7,2.719a5.3,5.3,0,0,0-1.13-.883l-.424-.247.954-.547c1.766-1.024,1.766-2.7,0-3.743l-6.41-3.708a7.382,7.382,0,0,0-5.474-.441c.954-1.007.724-2.3-.777-3.161l-6.392-3.638a7.2,7.2,0,0,0-6.5,0l-.954.547-.424-.23a7.288,7.288,0,0,0-1.518-.653Zm8.935,10.365-10.453-6.039.953-.547a4.432,4.432,0,0,1,4.026,0l6.41,3.69c1.112.653,1.13,1.766,0,2.331Zm12.643,7.293-10.453-6.039.954-.547a4.485,4.485,0,0,1,4.026,0l6.41,3.708a1.236,1.236,0,0,1,0,2.331Zm-39.235-10.4,5.527-3.2a8.529,8.529,0,0,1,7.734,0l26.4,15.239c2.154,1.236,2.154,3.249,0,4.467l-5.527,3.2Z" transform="translate(-173.759 129.514)" fill="#a56ef4"/>
  <path id="Tracé_135" data-name="Tracé 135" d="M569.448,239.793l-1.872-14.285c-.247-1.766-2.931-3.355-6.057-3.532L536.8,220.9a9.536,9.536,0,0,0-5.085,1.077L511.46,233.666l35.9,20.73,20.253-11.689a3.09,3.09,0,0,0,1.836-2.914Zm-11.5,1.218-23.29-13.455,1.624-.936,23.29,13.455Zm-24.509-12.749,23.308,13.455-14.514,8.387L518.929,236.65ZM547.3,252.983l-3.867-2.243,18.576-10.718-25.745-14.85-18.558,10.771-3.867-2.225,19.053-11a7.063,7.063,0,0,1,3.761-.795L561.378,223c2.313.106,4.291,1.254,4.467,2.578l1.872,14.285a2.26,2.26,0,0,1-1.378,2.172Z" transform="translate(-88.79 80.216)" fill="#a56ef4"/>
  <g id="Groupe_3" data-name="Groupe 3" transform="translate(41.049 86.966)">
    <path id="Tracé_136" data-name="Tracé 136" d="M329.85,164.514c-21.613-12.484-21.719-32.72-.247-45.115s56.5-12.36,78.135.141,21.719,32.737.177,45.1S351.41,177,329.85,164.514Zm75.292-43.473c-20.165-11.636-52.885-11.707-72.908-.124s-19.953,30.442.212,42.1,52.885,11.689,72.926.124,19.918-30.459-.229-42.1Z" transform="translate(-281.375 -91.554)" fill="#1bb0d4"/>
    <path id="Tracé_137" data-name="Tracé 137" d="M325.621,174.768c-27.7-16-27.846-41.937-.318-57.846s72.4-15.892,100.172.194,27.846,41.937.318,57.829S353.326,190.765,325.621,174.768Zm95.951-55.392c-25.533-14.744-66.958-14.832-92.332-.177s-25.25,38.564.283,53.308,66.958,14.815,92.332.177S447.106,134.1,421.573,119.376Z" transform="translate(-288.129 -95.469)" fill="#1bb0d4" opacity="0.4"/>
    <path id="Tracé_138" data-name="Tracé 138" d="M321.1,185.672c-34.2-19.741-34.379-51.79-.388-71.407s89.489-19.529,123.692.212,34.379,51.79.388,71.425S355.307,205.431,321.1,185.672ZM439.2,117.5c-31.325-18.081-82.126-18.17-113.238-.212s-30.971,47.3.353,65.333,82.126,18.17,113.238.194S470.523,135.613,439.2,117.5Z" transform="translate(-295.337 -99.611)" fill="#1bb0d4" opacity="0.1"/>
    <path id="Tracé_139" data-name="Tracé 139" d="M363.767,136.723c5.9-3.408,5.456-9.111-1.324-12.219a22.955,22.955,0,0,0-17.287-.141c-4.044,1.766-5.9,4.45-5.58,7.063a3.99,3.99,0,0,1-2.419,3.849l-2.19,1.271a1.236,1.236,0,0,0,0,2.331l4.909,2.843a4.5,4.5,0,0,0,4.061,0l2.172-1.271a13.154,13.154,0,0,1,6.8-1.395A20.765,20.765,0,0,0,363.767,136.723Z" transform="translate(-265.621 -81.898)" fill="#1bb0d4"/>
    <path id="Tracé_140" data-name="Tracé 140" d="M333.98,135.611h0c-1.466-.83-1.289-2.313.406-3.284l.3-.177,5.3,3.055-.318.177A6.269,6.269,0,0,1,333.98,135.611Z" transform="translate(-266.506 -74.694)" fill="#1bb0d4"/>
    <path id="Tracé_141" data-name="Tracé 141" d="M344.5,124.1h2.437V119c0-.388-.547-.706-1.218-.706s-1.2.318-1.2.706Z" transform="translate(-257.69 -85.308)" fill="#1bb0d4"/>
    <path id="Tracé_142" data-name="Tracé 142" d="M342.2,124.634l-6.233-3.532a1.766,1.766,0,0,0-1.766,0c-.477.265-.459.706,0,.989l6.233,3.532A16.062,16.062,0,0,1,342.2,124.634Z" transform="translate(-265.845 -83.335)" fill="#1bb0d4"/>
    <path id="Tracé_143" data-name="Tracé 143" d="M355.28,128.395h8.829c.671,0,1.218-.3,1.218-.689s-.547-.706-1.218-.706H355.28A5.4,5.4,0,0,1,355.28,128.395Z" transform="translate(-249.435 -78.638)" fill="#1bb0d4"/>
    <path id="Tracé_144" data-name="Tracé 144" d="M352.753,125.093l.812.53,6.18-3.532a.524.524,0,0,0,0-.989,1.766,1.766,0,0,0-1.766,0l-6.18,3.532Z" transform="translate(-252.1 -83.335)" fill="#1bb0d4"/>
    <path id="Tracé_145" data-name="Tracé 145" d="M359.8,134.772l-6.215-3.532c-.265.177-.53.353-.812.512s-.6.318-.9.477l6.215,3.532a1.766,1.766,0,0,0,1.766,0C360.275,135.5,360.275,135.054,359.8,134.772Z" transform="translate(-252.047 -75.391)" fill="#1bb0d4"/>
    <path id="Tracé_146" data-name="Tracé 146" d="M334.175,133.26c-.318.265-.3.636.124.883a1.907,1.907,0,0,0,1.554,0Z" transform="translate(-265.764 -73.844)" fill="#1bb0d4"/>
  </g>
</svg>
